# xmcd
#
# Track frame offsets: 
#        182
#        14237
#        26080
#        40717
#        56187
#        68212
#        80062
#        92890
#        107675
#        122402
#        133050
#        145837
#        159822
#        173965
#        188007
#        200810
#        212900
#        223462
#        235387
#        250047
#        267205
#        279677
#
# Disc length: 3941 seconds
#
# Revision: 4
# Processed by: cddbd v1.5.2PL0 Copyright (c) Steve Scherf et al.
# Submitted via: ExactAudioCopy v0.99pb5
#
DISCID=560f6316
DTITLE=Anne Murray - Her Greatest Hits And Finest Performances - CD 3
DYEAR=1990
DGENRE=Country
TTITLE0=A little good news
TTITLE1=I'll be home
TTITLE2=Sunday sunrise
TTITLE3=Lift your hearts to the sun
TTITLE4=Get together
TTITLE5=United we stand (with Glen Campbell)
TTITLE6=I'll never fall in love again
TTITLE7=Let me be the one (with Glen Campbell)
TTITLE8=Nevertheless (I'm in love with you)
TTITLE9=Everything old is new again
TTITLE10=Canadian sunset (with Glen Campbell)
TTITLE11=You've got a friend
TTITLE12=Dream lover
TTITLE13=Rainin' in my heart
TTITLE14=Day tripper
TTITLE15=Bitter they are, harder they fall
TTITLE16=Fire and rain
TTITLE17=What about me
TTITLE18=I know
TTITLE19=Ease your pain
TTITLE20=One day I walk
TTITLE21=Put your hand in the hand
EXTD=
EXTT0=
EXTT1=
EXTT2=
EXTT3=
EXTT4=
EXTT5=
EXTT6=
EXTT7=
EXTT8=
EXTT9=
EXTT10=
EXTT11=
EXTT12=
EXTT13=
EXTT14=
EXTT15=
EXTT16=
EXTT17=
EXTT18=
EXTT19=
EXTT20=
EXTT21=
PLAYORDER=
